<svg xmlns="http://www.w3.org/2000/svg" xmlns:xlink="http://www.w3.org/1999/xlink" width="10.226" height="10.143" viewBox="0 0 10.226 10.143">
  <defs>
    <linearGradient id="linear-gradient" x1="0.5" x2="2.055" y2="1.968" gradientUnits="objectBoundingBox">
      <stop offset="0" stop-color="#c5b804"/>
      <stop offset="1" stop-color="#512000"/>
    </linearGradient>
  </defs>
  <g id="administrator-solid" transform="translate(-2 -2.3)">
    <path id="Path_1824" data-name="Path 1824" d="M12.517,4.223A1.923,1.923,0,1,1,10.593,2.3a1.923,1.923,0,0,1,1.923,1.923Z" transform="translate(-4.532)" fill="url(#linear-gradient)"/>
    <path id="Path_1825" data-name="Path 1825" d="M6.629,22.23a.689.689,0,0,1-.122-.817l.17-.321-.349-.106a.686.686,0,0,1-.481-.673v-.657a.692.692,0,0,1,.49-.664l.349-.106-.167-.321a.7.7,0,0,1,.112-.808,6.065,6.065,0,0,0-.744-.051A4.994,4.994,0,0,0,2,19.425V21.91a.321.321,0,0,0,.321.321H6.629Z" transform="translate(0 -10.467)" fill="url(#linear-gradient)"/>
    <path id="Path_1826" data-name="Path 1826" d="M21.5,18.235l-.641-.192a2.157,2.157,0,0,0-.186-.455l.321-.6a.112.112,0,0,0-.022-.138l-.465-.468a.122.122,0,0,0-.138-.022l-.593.321a2.481,2.481,0,0,0-.458-.192l-.2-.641A.122.122,0,0,0,19,15.77h-.667a.122.122,0,0,0-.112.083l-.192.641a2.2,2.2,0,0,0-.465.2l-.58-.321a.122.122,0,0,0-.141.019l-.471.462a.119.119,0,0,0-.022.141l.321.583a2.321,2.321,0,0,0-.208.458l-.641.2a.115.115,0,0,0-.083.112V19a.115.115,0,0,0,.083.112l.641.2a2.337,2.337,0,0,0,.192.452l-.321.609a.119.119,0,0,0,.022.141l.478.465a.122.122,0,0,0,.141.019l.6-.321a2.273,2.273,0,0,0,.449.183l.192.657a.122.122,0,0,0,.115.083h.657a.122.122,0,0,0,.112-.083l.192-.657a2.141,2.141,0,0,0,.442-.183l.606.321a.122.122,0,0,0,.141-.019l.468-.465a.122.122,0,0,0,.019-.141l-.321-.6a2.218,2.218,0,0,0,.183-.442l.641-.2a.125.125,0,0,0,.087-.112v-.664A.128.128,0,0,0,21.5,18.235Zm-2.831,1.513a1.071,1.071,0,1,1,1.067-1.071,1.071,1.071,0,0,1-1.067,1.071Z" transform="translate(-9.335 -9.152)" fill="url(#linear-gradient)"/>
  </g>
</svg>
